<svg height="104" viewBox="0 0 35.983334 27.516667" width="136" xmlns="http://www.w3.org/2000/svg" xmlns:xlink="http://www.w3.org/1999/xlink"><clipPath id="a"><circle cx="19.121752" cy="11.803108" r="8.8343"/></clipPath><circle cx="17.991667" cy="15.986207" fill="#1d7193" r="15.986207"/><g clip-path="url(#a)" transform="matrix(1.8095612 0 0 1.8095612 -16.610313 -5.325468)"><circle cx="10.942086" cy="44.055367" fill="#0c5a73" r="31.140114"/><path d="m82.447266 20.078125c-5.868934.000117-10.563187 3.875837-10.457032 9.830078.04505 2.529396.832391 4.455713 2.189454 5.822266v15.162109l-6.238282-6.064453-24.755859 23.652344 25.308594 16.439453 18.052734-13.556641 2.208984-6.298828-4.404297-4.28125-1.726562-4.919922v-16.873047c4.45296-.699673 11.198759-4.915276 11.851562-9.15625-1.23716-3.404144-6.152887-9.756003-12.029296-9.755859z" fill="#fff" transform="scale(.26458334)"/><path d="m94.458984 29.871094c-1.789417 4.200268-7.903069 8.445308-12.609375 8.445312-.221253 0-.436506-.01159-.652343-.01953v19.417969l3.154296 3.068359v-21.332032c4.438851-1.342617 10.414063-6.210866 10.414063-9.542969zm-5.703125 35.193359c-5.054195 7.448266-10.057281 12.508425-17.0625 15.855469-1.869554.89326-3.842612 1.633272-5.888671 2.253906l5.068359 3.292969c9.36605-4.71958 18.242945-12.807459 17.882812-21.402344z" fill="#e0e0e0" transform="scale(.26458334)"/><path d="m56.767578 61.046875-13.117187 7.736328 13.117187 8.519531z" fill="#b3b3b3" transform="scale(.26458334)"/><path d="m56.767578 52.101562-16.27539 14.63086 5.777343 3.751953 10.498047-9.4375z" fill="#ccc" transform="scale(.26458334)"/><path d="m22.824844 6.9952522c0 .178297-.144232.322532-.322811.322532-.177745 0-.63133-.322532-.63133-.322532s.453305-.32172.63133-.32172c.178579-.000271.322811.144233.322811.32172z" fill="#0d0d0d"/></g><path d="m26.110488 9.3105871 2.081037 1.1104859 4.872255-.306445 1.915854.409532.709933-.8222897-8.069869-.8473759z" fill="#b1742a"/><path d="m28.020723 7.7730608-1.910235 1.5375263 9.76164.4961307-.677217-1.2623822-1.555856-.01815z" fill="#fcb320"/><path d="m34.686299 9.9326748-1.101758.2932642 1.30474.278913z" fill="#96412a"/></svg>